<svg width="20" height="20" viewBox="0 0 20 20" fill="none" xmlns="http://www.w3.org/2000/svg">
<g clip-path="url(#clip0)">
<path d="M2.5 19.1667C2.34917 19.1667 2.19833 19.1125 2.07833 19.0033C1.99417 18.9258 0 17.0825 0 15.1567C0 13.6917 1.12167 12.5 2.5 12.5C3.87833 12.5 5 13.6917 5 15.1567C5 17.0833 3.00583 18.9258 2.92167 19.0033C2.80167 19.1125 2.65083 19.1667 2.5 19.1667Z" fill="white"/>
<path d="M13.045 20.0002H2.5C2.155 20.0002 1.875 19.7202 1.875 19.3752C1.875 19.0302 2.155 18.7502 2.5 18.7502H13.045C13.1633 18.7502 13.2158 18.6777 13.2392 18.6168C13.2625 18.556 13.2725 18.4668 13.185 18.3885L7.6425 13.3727C7.19167 12.966 7.04167 12.336 7.26 11.7685C7.47917 11.2002 8.01333 10.8335 8.62167 10.8335H15.8333C16.1783 10.8335 16.4583 11.1135 16.4583 11.4585C16.4583 11.8035 16.1783 12.0835 15.8333 12.0835H8.62167C8.50333 12.0835 8.45083 12.156 8.4275 12.2168C8.40417 12.2777 8.39417 12.3668 8.48167 12.4452L14.0242 17.461C14.475 17.8677 14.625 18.4977 14.4067 19.0652C14.1875 19.6335 13.6533 20.0002 13.045 20.0002Z" fill="white"/>
<path d="M15.8327 0C13.5352 0 11.666 1.8925 11.666 4.21833C11.666 7.42917 15.2727 10.5517 15.4268 10.6833C15.5435 10.7833 15.6877 10.8333 15.8327 10.8333C15.9777 10.8333 16.1218 10.7833 16.2385 10.6833C16.3927 10.5517 19.9993 7.42917 19.9993 4.21833C19.9993 1.8925 18.1302 0 15.8327 0ZM15.8327 5.83333C14.9135 5.83333 14.166 5.08583 14.166 4.16667C14.166 3.2475 14.9135 2.5 15.8327 2.5C16.7518 2.5 17.4993 3.2475 17.4993 4.16667C17.4993 5.08583 16.7518 5.83333 15.8327 5.83333Z" fill="white"/>
</g>
<defs>
<clipPath id="clip0">
<rect width="20" height="20" fill="white"/>
</clipPath>
</defs>
</svg>
