<svg width="20" height="20" viewBox="0 0 20 20" fill="none" xmlns="http://www.w3.org/2000/svg">
<g clip-path="url(#clip0)">
<path d="M6.48438 12.9298H17.0705C17.3326 12.9298 17.5626 12.7565 17.6335 12.5047L19.9774 4.30145C20.0278 4.1246 19.9933 3.93463 19.8824 3.78769C19.7713 3.6412 19.5985 3.55469 19.4142 3.55469H5.13168L4.71283 1.66992C4.65332 1.40152 4.41528 1.21094 4.14062 1.21094H0.585938C0.262146 1.21094 0 1.47308 0 1.79688C0 2.12082 0.262146 2.38281 0.585938 2.38281H3.67035L5.78629 11.9043C5.16373 12.175 4.72656 12.7946 4.72656 13.5158C4.72656 14.485 5.51514 15.2736 6.48438 15.2736H17.0705C17.3944 15.2736 17.6564 15.0116 17.6564 14.6877C17.6564 14.3639 17.3944 14.1017 17.0705 14.1017H6.48438C6.16165 14.1017 5.89844 13.8391 5.89844 13.5158C5.89844 13.1924 6.16165 12.9298 6.48438 12.9298Z" fill="white"/>
<path d="M5.89844 17.0312C5.89844 18.0006 6.68701 18.7891 7.6564 18.7891C8.62564 18.7891 9.41422 18.0006 9.41422 17.0312C9.41422 16.062 8.62564 15.2734 7.6564 15.2734C6.68701 15.2734 5.89844 16.062 5.89844 17.0312Z" fill="white"/>
<path d="M14.1406 17.0312C14.1406 18.0006 14.9292 18.7891 15.8984 18.7891C16.8678 18.7891 17.6562 18.0006 17.6562 17.0312C17.6562 16.062 16.8678 15.2734 15.8984 15.2734C14.9292 15.2734 14.1406 16.062 14.1406 17.0312Z" fill="white"/>
</g>
<defs>
<clipPath id="clip0">
<rect width="20" height="20" fill="white"/>
</clipPath>
</defs>
</svg>
