<svg width="20" height="20" viewBox="0 0 20 20" fill="none" xmlns="http://www.w3.org/2000/svg">
<g clip-path="url(#clip0)">
<path d="M9.16667 12.5C7.78833 12.5 6.66667 11.3783 6.66667 10C6.66667 8.62167 7.78833 7.5 9.16667 7.5H13.3333V2.29167C13.3333 1.0275 12.3058 0 11.0417 0H2.29167C1.0275 0 0 1.0275 0 2.29167V17.7083C0 18.9725 1.0275 20 2.29167 20H11.0417C12.3058 20 13.3333 18.9725 13.3333 17.7083V12.5H9.16667Z" fill="white"/>
<path d="M15.5148 14.1032C15.204 13.974 15.0007 13.6698 15.0007 13.3332V10.8332H9.16732C8.70732 10.8332 8.33398 10.4598 8.33398 9.99983C8.33398 9.53983 8.70732 9.1665 9.16732 9.1665H15.0007V6.6665C15.0007 6.32983 15.204 6.02567 15.5148 5.8965C15.8265 5.76733 16.1848 5.839 16.4232 6.07733L19.7565 9.41066C20.0823 9.7365 20.0823 10.2632 19.7565 10.589L16.4232 13.9223C16.1848 14.1607 15.8265 14.2323 15.5148 14.1032Z" fill="white"/>
</g>
<defs>
<clipPath id="clip0">
<rect width="20" height="20" fill="white"/>
</clipPath>
</defs>
</svg>
