<svg width="20" height="20" viewBox="0 0 20 20" fill="none" xmlns="http://www.w3.org/2000/svg">
<path d="M6.17969 9.41406H9.41305V5.87891H6.62918C6.36992 6.96711 6.21637 8.16512 6.17969 9.41406Z" fill="white"/>
<path d="M10.5859 9.41406H13.8193C13.7826 8.16512 13.6291 6.96711 13.3698 5.87891H10.5859V9.41406Z" fill="white"/>
<path d="M14.991 9.41406H19.9821C19.911 8.17758 19.6159 6.98348 19.1159 5.87891H14.5703C14.813 6.98227 14.9564 8.17734 14.991 9.41406Z" fill="white"/>
<path d="M5.42938 5.87891H0.88375C0.383867 6.98348 0.0886719 8.17758 0.0175781 9.41406H5.00867C5.04324 8.17734 5.18664 6.98227 5.42938 5.87891Z" fill="white"/>
<path d="M9.41395 1.28857C8.68609 1.57432 7.97816 2.37904 7.40918 3.59256C7.2457 3.94123 7.09754 4.31436 6.96484 4.7076H9.41395V1.28857Z" fill="white"/>
<path d="M6.34809 3.09449C7.28375 1.09898 8.58059 0 9.99981 0C7.32871 0 4.8175 1.0402 2.92871 2.92891C2.38418 3.47348 1.91063 4.07004 1.51172 4.70703H5.73485C5.91012 4.13242 6.11492 3.5918 6.34809 3.09449Z" fill="white"/>
<path d="M13.6517 3.09449C13.8849 3.59176 14.0896 4.13242 14.2649 4.70703H18.488C18.0891 4.07004 17.6156 3.47348 17.071 2.92891C15.1823 1.0402 12.6711 0 10 0C11.4192 0 12.7161 1.09898 13.6517 3.09449Z" fill="white"/>
<path d="M10.5859 1.28857V4.7076H13.035C12.9023 4.31436 12.7542 3.94123 12.5907 3.59256C12.0217 2.37908 11.3138 1.57436 10.5859 1.28857Z" fill="white"/>
<path d="M0 10.5859V19.4141C0 19.7377 0.262344 20 0.585938 20H19.4141C19.7377 20 20 19.7377 20 19.4141V10.5859H0ZM5.36613 17.4761C5.14105 17.5464 4.90422 17.4597 4.76266 17.2552L3.27992 15.1081V17.0508C3.27992 17.3205 3.06133 17.5391 2.79164 17.5391C2.52199 17.5391 2.30336 17.3205 2.30336 17.0508V13.5418C2.30336 13.3281 2.4423 13.1392 2.64633 13.0756C2.85031 13.012 3.07195 13.0885 3.19344 13.2643L4.75324 15.523L4.73406 13.5399C4.73145 13.2703 4.94797 13.0496 5.21762 13.047H5.22242C5.48992 13.047 5.70801 13.2625 5.71059 13.5305L5.74344 16.9277V16.9324C5.74348 17.1911 5.59535 17.4045 5.36613 17.4761ZM8.28769 14.8048C8.55734 14.8048 8.77598 15.0234 8.77598 15.293C8.77598 15.5627 8.55734 15.7813 8.28769 15.7813H7.40387V16.5626H8.39691C8.66656 16.5626 8.88519 16.7812 8.88519 17.0509C8.88519 17.3205 8.66656 17.5391 8.39691 17.5391H6.91559C6.6459 17.5391 6.4273 17.3205 6.4273 17.0509V13.5352C6.4273 13.2656 6.6459 13.047 6.91559 13.047H8.39691C8.66656 13.047 8.88519 13.2656 8.88519 13.5352C8.88519 13.8049 8.66656 14.0235 8.39691 14.0235H7.40387V14.8048H8.28769ZM14.2192 13.637L13.5315 17.0923C13.5273 17.1133 13.5218 17.134 13.5149 17.1543C13.4371 17.3829 13.2227 17.5375 12.9813 17.5391C12.98 17.5391 12.9787 17.5391 12.9775 17.5391C12.7376 17.5391 12.523 17.3877 12.4426 17.1614C12.4403 17.1549 12.4382 17.1484 12.4361 17.1418L11.8359 15.1934L11.2329 17.1414C11.2316 17.1457 11.2302 17.15 11.2287 17.1543C11.151 17.3828 10.9366 17.5374 10.6953 17.5391C10.6939 17.5391 10.6927 17.5391 10.6913 17.5391C10.4515 17.5391 10.2369 17.3879 10.1565 17.1616C10.1485 17.1392 10.1422 17.1161 10.1375 17.0927L9.45262 13.6299C9.40027 13.3654 9.5723 13.1085 9.83687 13.0562C10.1013 13.0038 10.3583 13.1759 10.4106 13.4404L10.7793 15.3043L11.3598 13.4289C11.3968 13.2635 11.5187 13.122 11.6923 13.0685C11.95 12.9891 12.2233 13.1337 12.3027 13.3914L12.8918 15.3038L13.2615 13.4463C13.3142 13.1818 13.5712 13.0102 13.8357 13.0627C14.1001 13.1154 14.2718 13.3725 14.2192 13.637ZM17.7438 16.3748C17.6234 17.0495 16.981 17.5391 16.2164 17.5391C15.6004 17.5391 15.022 17.2907 14.6295 16.8576C14.4484 16.6578 14.4636 16.349 14.6634 16.1679C14.8632 15.9869 15.172 16.0021 15.3531 16.2019C15.5578 16.4277 15.8805 16.5626 16.2164 16.5626C16.5305 16.5626 16.7509 16.3798 16.7825 16.2031C16.8238 15.9718 16.4639 15.8199 16.3527 15.7789C15.8059 15.5772 15.3204 15.3611 15.3 15.352C15.2764 15.3414 15.2538 15.3291 15.2322 15.3151C14.8455 15.0629 14.6462 14.6207 14.7122 14.1611C14.7823 13.6725 15.1388 13.2747 15.6425 13.123C16.5721 12.8428 17.3458 13.4216 17.4589 13.512C17.5733 13.6013 17.6471 13.7402 17.6471 13.8967C17.6471 14.1663 17.4286 14.385 17.1589 14.385C17.039 14.385 16.9294 14.3416 16.8443 14.27L16.8439 14.2705L16.847 14.273C16.8427 14.2695 16.3982 13.9152 15.9241 14.058C15.7254 14.1179 15.6863 14.2471 15.6788 14.2999C15.6737 14.3351 15.6711 14.4184 15.7425 14.4798C15.8725 14.5366 16.2673 14.7065 16.6906 14.8627C17.6059 15.2002 17.8348 15.8651 17.7438 16.3748Z" fill="white"/>
</svg>
