<svg width="20" height="20" viewBox="0 0 20 20" fill="none" xmlns="http://www.w3.org/2000/svg">
<path d="M4.07883 3.42104H5.65778C5.73047 3.42104 5.78935 3.3621 5.78935 3.28947V0.131567C5.78935 0.0588826 5.73047 0 5.65778 0H4.07883C4.00615 0 3.94727 0.058933 3.94727 0.131567V3.28947C3.94727 3.36215 4.00615 3.42104 4.07883 3.42104Z" fill="white"/>
<path d="M18.2632 2.36865H16.3158V3.21074C16.3158 3.71076 15.9474 4.21074 15.4474 4.21074H13.8948C13.359 4.17276 12.9328 3.74653 12.8948 3.21074V2.36865H6.57899V3.21074C6.54101 3.74653 6.11478 4.17276 5.57899 4.21074H4.02633C3.52631 4.21074 3.1579 3.71071 3.1579 3.21074V2.36865H1.21054C0.537751 2.38301 -0.000151078 2.9326 3.18302e-08 3.60554V6.84237H19.4737V3.60554C19.4739 2.9326 18.936 2.38301 18.2632 2.36865Z" fill="white"/>
<path d="M13.8152 3.42104H15.3941C15.4668 3.42104 15.5257 3.3621 15.5257 3.28947V0.131567C15.5257 0.0588826 15.4667 0 15.3941 0H13.8152C13.7425 0 13.6836 0.058933 13.6836 0.131567V3.28947C13.6836 3.36215 13.7425 3.42104 13.8152 3.42104Z" fill="white"/>
<path d="M7.7633 14.6841L7.39489 16.8156L9.28961 15.8156L9.47382 15.763L9.65802 15.8156L11.5527 16.8156L11.1843 14.6841C11.1703 14.5604 11.2084 14.4364 11.2896 14.342L12.8423 12.8683L10.7107 12.5525C10.5861 12.5326 10.4785 12.4544 10.4212 12.342L9.47387 10.4209L8.52651 12.342C8.46919 12.4544 8.36165 12.5326 8.23703 12.5525L6.10547 12.8683L7.65813 14.342C7.73922 14.4364 7.77735 14.5603 7.7633 14.6841Z" fill="white"/>
<path d="M0 18.8156C0.0143051 19.4738 0.552107 19.9999 1.21054 19.9998H18.2632C18.9216 19.9999 19.4594 19.4738 19.4737 18.8156V7.63135H0V18.8156ZM4.89476 12.4735C4.93677 12.3297 5.06159 12.2257 5.21053 12.2103L7.92105 11.7893L9.13159 9.34192C9.24034 9.15298 9.48172 9.088 9.67066 9.19675C9.731 9.23151 9.78107 9.28157 9.81582 9.34192L11.0264 11.7893L13.7369 12.2103C13.8858 12.2257 14.0107 12.3298 14.0527 12.4735C14.1004 12.6143 14.0589 12.7699 13.9474 12.8682L12 14.763L12.4737 17.4735C12.492 17.6159 12.4315 17.757 12.3158 17.8419C12.2466 17.8915 12.1641 17.919 12.0789 17.9208C12.0131 17.9271 11.9473 17.9083 11.8947 17.8682L9.47371 16.605L7.05267 17.8682C6.9207 17.9486 6.75256 17.9381 6.63163 17.8419C6.51593 17.7569 6.45548 17.6158 6.47372 17.4735L6.9474 14.763L5.00004 12.8682C4.88852 12.7699 4.84701 12.6142 4.89476 12.4735Z" fill="white"/>
</svg>
