<svg width="20" height="15" viewBox="0 0 20 15" fill="none" xmlns="http://www.w3.org/2000/svg">
<path d="M15.3125 12.7393H14.7266H5.21289H4.62695H4.04102V14.2932H15.8984V12.7393H15.3125Z" fill="white"/>
<path d="M5.42266 3.09277L4.60742 5.08066L5.13398 5.34004L5.66094 5.59941L6.30391 5.91582L6.78164 5.2334L7.11914 4.75137L7.45625 4.26973L5.42266 3.09277Z" fill="white"/>
<path d="M14.5762 3.09277L12.5039 4.29199L12.8414 4.77363L13.1785 5.25566L13.6406 5.91582L14.3289 5.57715L14.8555 5.31777L15.3824 5.0584L14.5762 3.09277Z" fill="white"/>
<path d="M18.3477 2.95391C17.5027 2.95391 16.8043 3.59063 16.707 4.40977C16.6992 4.47422 16.6953 4.53984 16.6953 4.60625C16.6953 4.75547 16.7152 4.90039 16.7527 5.03789C16.8047 5.23047 16.891 5.40938 17.0043 5.56719L15.8293 6.1457L15.3023 6.40508L15.2367 6.4375H15.2363L14.7754 6.66406L13.2578 7.41133L12.1613 5.84531L11.8664 5.42383V5.42344L11.8238 5.36289L11.4867 4.88125L10.3531 3.26172C10.5516 3.21563 10.7367 3.13359 10.9008 3.02266C11.066 2.91172 11.2102 2.7707 11.3258 2.6082C11.518 2.33828 11.6313 2.0082 11.6313 1.65234C11.6313 0.741015 10.8902 0 9.97891 0C9.06797 0 8.32656 0.741015 8.32656 1.65234C8.32656 2.00469 8.4375 2.33164 8.62617 2.6C8.74102 2.76328 8.88437 2.90508 9.04883 3.01719C9.21211 3.12891 9.39648 3.21211 9.59453 3.25938L8.47461 4.85898L8.1375 5.34063L8.06523 5.44414L7.8 5.82305L6.68828 7.41133L5.21523 6.68633L4.73008 6.44727L4.68867 6.42695L4.16172 6.16758L2.88281 5.53828C3.01367 5.39219 3.11914 5.22266 3.1918 5.03711C3.26445 4.85156 3.3043 4.65 3.30469 4.43945V4.43633C3.30469 3.525 2.56367 2.78359 1.65234 2.78359C0.741406 2.78359 0 3.525 0 4.43633C0 5.27188 0.623828 5.96523 1.43047 6.07383C1.50312 6.08359 1.57695 6.08867 1.65234 6.08867C1.78594 6.08867 1.91562 6.07266 2.04023 6.04258C2.23516 5.9957 2.4168 5.91406 2.57812 5.80469L4.41875 10.9813L4.62695 11.5672H15.3188L15.527 10.9813L17.3312 5.90781C17.4863 6.0293 17.6633 6.12344 17.8555 6.18359C18.0109 6.23242 18.1762 6.25859 18.3477 6.25859C18.3828 6.25859 18.4176 6.25742 18.452 6.25508C19.3145 6.20117 20 5.48203 20 4.60625C20 3.69492 19.2586 2.95391 18.3477 2.95391Z" fill="white"/>
</svg>
