<svg width="26" height="23" viewBox="0 0 26 23" fill="none" xmlns="http://www.w3.org/2000/svg">
<path d="M18.8639 0H0.992188L9.9033 5.94077L18.8639 0Z" fill="white"/>
<path d="M14.6991 10.4609L19.8554 7.90361V1.17065L10.3232 7.49035C10.0685 7.6593 9.73595 7.66006 9.47981 7.48929L0 1.16943V14.4726C0 14.8931 0.341249 15.2344 0.761716 15.2344H7.66794V13.7617C7.66794 11.9417 9.14871 10.4609 10.9687 10.4609H14.6991Z" fill="white"/>
<path d="M24.7313 12.6824L25.5438 12.327C25.9292 12.1584 26.1049 11.7092 25.9363 11.3238C25.7677 10.9384 25.3185 10.7626 24.9332 10.9313L24.1207 11.2868C23.7352 11.4554 23.5595 11.9045 23.7281 12.2899C23.8969 12.6756 24.3462 12.851 24.7313 12.6824Z" fill="white"/>
<path d="M25.5438 17.7359L24.7313 17.3805C24.3459 17.2119 23.8967 17.3876 23.7281 17.773C23.5595 18.1584 23.7352 18.6075 24.1207 18.7761L24.9332 19.1316C25.3186 19.3002 25.7678 19.1244 25.9363 18.7391C26.1049 18.3536 25.9292 17.9045 25.5438 17.7359Z" fill="white"/>
<path d="M25.2383 14.2695H24.4258C24.0051 14.2695 23.6641 14.6106 23.6641 15.0312C23.6641 15.4519 24.0051 15.793 24.4258 15.793H25.2383C25.659 15.793 26 15.4519 26 15.0312C26 14.6106 25.659 14.2695 25.2383 14.2695Z" fill="white"/>
<path d="M10.9687 11.9843C9.98872 11.9843 9.19141 12.7816 9.19141 13.7616V16.3007C9.19141 17.1488 9.78859 17.8595 10.5844 18.0358L9.96348 21.7615C9.88609 22.2256 10.2446 22.6484 10.7148 22.6484H13.7617C14.1309 22.6484 14.4471 22.3836 14.5117 22.02L15.1998 18.1495L15.2852 18.1918V11.8706L15.0559 11.9843H10.9687Z" fill="white"/>
<path d="M21.0405 9.01657L16.8086 11.1151V18.947L21.0405 21.0455C21.545 21.2957 22.1406 20.9284 22.1406 20.3631V9.69902C22.1406 9.13413 21.5458 8.76597 21.0405 9.01657Z" fill="white"/>
</svg>
